{
  "source": "C:\\Users\\Peter\\Desktop\\stuff\\MIUN\\quantitative_research\\video_compression\\videos\\BVI-HD\\BVI-HD_CDVL_videos\\ORIG\\BallUnderWater_1920x1080_60fps.mp4",
  "output": "C:\\Users\\Peter\\Desktop\\stuff\\MIUN\\quantitative_research\\video_compression\\compressed_videos\\BVI-HD\\av1\\3\\BallUnderWater_1920x1080_60fps_av1.mkv",
  "codec": "av1",
  "ok": "Input #0, mov,mp4,m4a,3gp,3g2,mj2, from 'C:\\Users\\Peter\\Desktop\\stuff\\MIUN\\quantitative_research\\video_compression\\videos\\BVI-HD\\BVI-HD_CDVL_videos\\ORIG\\BallUnderWater_1920x1080_60fps.mp4':\n  Metadata:\n    major_brand     : isom\n    minor_version   : 512\n    compatible_brands: isomiso2avc1mp41\n    encoder         : Lavf54.28.101\n  Duration: 00:00:05.00, start: 0.000000, bitrate: 212030 kb/s\n  Stream #0:0[0x1](und): Video: h264 (High 4:4:4 Predictive) (avc1 / 0x31637661), yuv420p(progressive), 1920x1080, 212025 kb/s, 60 fps, 60 tbr, 60 tbn (default)\n    Metadata:\n      handler_name    : VideoHandler\n      vendor_id       : [0][0][0][0]\n[out#0/matroska @ 0000012629b7a0c0] Codec AVOption b:a (set bitrate (in bits/s)) has not been used for any stream. The most likely reason is either wrong type (e.g. a video option with no video streams) or that it is a private option of some decoder which was not actually used for any stream.\nStream mapping:\n  Stream #0:0 -> #0:0 (h264 (native) -> av1 (libsvtav1))\nPress [q] to stop, [?] for help\nSvt[info]: -------------------------------------------\nSvt[info]: SVT [version]:\tSVT-AV1 Encoder Lib v3.1.0-19-g6ecfe8ec\nSvt[info]: SVT [build]  :\tGCC 15.2.0\t 64 bit\nSvt[info]: LIB Build date: Aug 17 2025 11:37:13\nSvt[info]: -------------------------------------------\nSvt[info]: Level of Parallelism: 5\nSvt[info]: Number of PPCS 93\nSvt[info]: [asm level on system : up to avx2]\nSvt[info]: [asm level selected : up to avx2]\nSvt[info]: -------------------------------------------\nSvt[info]: SVT [config]: main profile\ttier (auto)\tlevel (auto)\nSvt[info]: SVT [config]: width / height / fps numerator / fps denominator \t\t: 1920 / 1080 / 60 / 1\nSvt[info]: SVT [config]: bit-depth / color format \t\t\t\t\t: 8 / YUV420\nSvt[info]: SVT [config]: preset / tune / pred struct \t\t\t\t\t: 4 / PSNR / random access\nSvt[info]: SVT [config]: gop size / mini-gop size / key-frame type \t\t\t: 321 / 16 / key frame\nSvt[info]: SVT [config]: BRC mode / target bitrate (kbps)\t\t\t\t: VBR / 3000 \nSvt[info]: SVT [config]: AQ mode / Variance Boost \t\t\t\t\t: 2 / 0\nSvt[info]: SVT [config]: sharpness / luminance-based QP bias \t\t\t\t: 0 / 0\nSvt[info]: SVT [config]: QP scale compress strength \t\t\t\t\t: 0\nSvt[info]: -------------------------------------------\nOutput #0, matroska, to 'C:\\Users\\Peter\\Desktop\\stuff\\MIUN\\quantitative_research\\video_compression\\compressed_videos\\BVI-HD\\av1\\3\\BallUnderWater_1920x1080_60fps_av1.mkv':\n  Metadata:\n    major_brand     : isom\n    minor_version   : 512\n    compatible_brands: isomiso2avc1mp41\n    encoder         : Lavf62.3.100\n  Stream #0:0(und): Video: av1 (AV01 / 0x31305641), yuv420p(tv, progressive), 1920x1080, q=2-31, 3000 kb/s, 60 fps, 1k tbn (default)\n    Metadata:\n      encoder         : Lavc62.11.100 libsvtav1\n      handler_name    : VideoHandler\n      vendor_id       : [0][0][0][0]\n    Side data:\n      cpb: bitrate max/min/avg: 0/0/3000000 buffer size: 3000000 vbv_delay: N/A\nframe=    0 fps=0.0 q=0.0 size=       0KiB time=N/A bitrate=N/A speed=N/A elapsed=0:00:01.66    \nframe=    0 fps=0.0 q=0.0 size=       0KiB time=N/A bitrate=N/A speed=N/A elapsed=0:00:02.22    \nframe=    0 fps=0.0 q=0.0 size=       0KiB time=N/A bitrate=N/A speed=N/A elapsed=0:00:02.74    \nframe=    0 fps=0.0 q=0.0 size=       0KiB time=N/A bitrate=N/A speed=N/A elapsed=0:00:03.26    \nframe=    0 fps=0.0 q=0.0 size=       0KiB time=N/A bitrate=N/A speed=N/A elapsed=0:00:03.78    \nframe=    0 fps=0.0 q=0.0 size=       0KiB time=N/A bitrate=N/A speed=N/A elapsed=0:00:04.47    \nframe=    1 fps=0.2 q=18.0 size=       1KiB time=00:00:00.00 bitrate=N/A speed=   0x elapsed=0:00:05.05    \nframe=    1 fps=0.2 q=18.0 size=       1KiB time=00:00:00.00 bitrate=N/A speed=   0x elapsed=0:00:05.61    \nframe=    1 fps=0.2 q=18.0 size=       1KiB time=00:00:00.00 bitrate=N/A speed=   0x elapsed=0:00:06.15    \nframe=    1 fps=0.1 q=18.0 size=       1KiB time=00:00:00.00 bitrate=N/A speed=   0x elapsed=0:00:06.69    \nframe=    5 fps=0.7 q=36.0 size=       1KiB time=00:00:00.05 bitrate= 113.9kbits/s speed=0.00688x elapsed=0:00:07.26    \nframe=    7 fps=0.9 q=36.0 size=       1KiB time=00:00:00.10 bitrate=  57.0kbits/s speed=0.0126x elapsed=0:00:07.96    \nframe=   10 fps=1.2 q=37.0 size=       1KiB time=00:00:00.15 bitrate=  38.0kbits/s speed=0.0173x elapsed=0:00:08.68    \nframe=   13 fps=1.4 q=34.0 size=       1KiB time=00:00:00.20 bitrate=  28.5kbits/s speed=0.0216x elapsed=0:00:09.27    \nframe=   16 fps=1.6 q=34.0 size=       1KiB time=00:00:00.25 bitrate=  22.8kbits/s speed=0.0254x elapsed=0:00:09.83    \nframe=   19 fps=1.8 q=36.0 size=       1KiB time=00:00:00.30 bitrate=  19.0kbits/s speed=0.0289x elapsed=0:00:10.39    \nframe=   21 fps=1.9 q=33.0 size=       1KiB time=00:00:00.33 bitrate=  17.1kbits/s speed=0.0304x elapsed=0:00:10.95    \nframe=   23 fps=2.0 q=36.0 size=       1KiB time=00:00:00.36 bitrate=  15.5kbits/s speed=0.0317x elapsed=0:00:11.55    \nframe=   25 fps=2.1 q=33.0 size=       1KiB time=00:00:00.40 bitrate=  14.2kbits/s speed=0.0331x elapsed=0:00:12.07    \nframe=   27 fps=2.1 q=36.0 size=       1KiB time=00:00:00.43 bitrate=  13.1kbits/s speed=0.0342x elapsed=0:00:12.66    \nframe=   29 fps=2.2 q=33.0 size=       1KiB time=00:00:00.46 bitrate=  12.2kbits/s speed=0.0352x elapsed=0:00:13.23    \nframe=   33 fps=2.4 q=27.0 size=       1KiB time=00:00:00.53 bitrate=  10.7kbits/s speed=0.0387x elapsed=0:00:13.77    \nframe=   36 fps=2.5 q=36.0 size=       1KiB time=00:00:00.58 bitrate=   9.8kbits/s speed=0.0406x elapsed=0:00:14.38    \nframe=   38 fps=2.5 q=36.0 size=       1KiB time=00:00:00.61 bitrate=   9.2kbits/s speed=0.0411x elapsed=0:00:14.99    \nframe=   39 fps=2.5 q=36.0 size=       1KiB time=00:00:00.63 bitrate=   9.0kbits/s speed=0.0407x elapsed=0:00:15.55    \nframe=   44 fps=2.7 q=36.0 size=       1KiB time=00:00:00.70 bitrate=   8.1kbits/s speed=0.0434x elapsed=0:00:16.13    \nframe=   47 fps=2.8 q=35.0 size=       1KiB time=00:00:00.76 bitrate=   7.4kbits/s speed=0.0457x elapsed=0:00:16.77    \nframe=   51 fps=3.0 q=36.0 size=       1KiB time=00:00:00.83 bitrate=   6.8kbits/s speed=0.0482x elapsed=0:00:17.27    \nframe=   53 fps=3.0 q=34.0 size=       1KiB time=00:00:00.86 bitrate=   6.6kbits/s speed=0.0487x elapsed=0:00:17.79    \nframe=   55 fps=3.0 q=33.0 size=       1KiB time=00:00:00.90 bitrate=   6.3kbits/s speed=0.0491x elapsed=0:00:18.31    \nframe=   58 fps=3.1 q=34.0 size=       1KiB time=00:00:00.95 bitrate=   6.0kbits/s speed=0.0504x elapsed=0:00:18.85    \nframe=   60 fps=3.1 q=34.0 size=       1KiB time=00:00:00.98 bitrate=   5.8kbits/s speed=0.0505x elapsed=0:00:19.47    \nframe=   64 fps=3.2 q=34.0 size=       1KiB time=00:00:01.05 bitrate=   5.4kbits/s speed=0.0523x elapsed=0:00:20.08    \nframe=   67 fps=3.3 q=36.0 size=       1KiB time=00:00:01.10 bitrate=   5.2kbits/s speed=0.0534x elapsed=0:00:20.60    \nframe=   70 fps=3.3 q=35.0 size=       1KiB time=00:00:01.15 bitrate=   5.0kbits/s speed=0.0544x elapsed=0:00:21.15    \nframe=   72 fps=3.3 q=35.0 size=       1KiB time=00:00:01.18 bitrate=   4.8kbits/s speed=0.0545x elapsed=0:00:21.72    \nframe=   75 fps=3.4 q=36.0 size=       1KiB time=00:00:01.23 bitrate=   4.6kbits/s speed=0.0551x elapsed=0:00:22.36    \nframe=   78 fps=3.4 q=33.0 size=       1KiB time=00:00:01.26 bitrate=   4.5kbits/s speed=0.0549x elapsed=0:00:23.07    \nframe=   82 fps=3.5 q=30.0 size=       1KiB time=00:00:01.35 bitrate=   4.2kbits/s speed=0.0568x elapsed=0:00:23.76    \nframe=   85 fps=3.5 q=33.0 size=       1KiB time=00:00:01.40 bitrate=   4.1kbits/s speed=0.0576x elapsed=0:00:24.31    \nframe=   87 fps=3.5 q=33.0 size=       1KiB time=00:00:01.43 bitrate=   4.0kbits/s speed=0.0574x elapsed=0:00:24.96    \nframe=   90 fps=3.5 q=33.0 size=       1KiB time=00:00:01.48 bitrate=   3.8kbits/s speed=0.058x elapsed=0:00:25.55    \nframe=   94 fps=3.6 q=34.0 size=       1KiB time=00:00:01.55 bitrate=   3.7kbits/s speed=0.0592x elapsed=0:00:26.19    \nframe=   98 fps=3.7 q=34.0 size=       1KiB time=00:00:01.61 bitrate=   3.5kbits/s speed=0.0603x elapsed=0:00:26.82    \nframe=  101 fps=3.7 q=33.0 size=       1KiB time=00:00:01.66 bitrate=   3.4kbits/s speed=0.0609x elapsed=0:00:27.37    \nframe=  103 fps=3.7 q=35.0 size=       1KiB time=00:00:01.70 bitrate=   3.4kbits/s speed=0.0606x elapsed=0:00:28.03    \nframe=  105 fps=3.7 q=27.0 size=       1KiB time=00:00:01.73 bitrate=   3.3kbits/s speed=0.0607x elapsed=0:00:28.55    \nframe=  107 fps=3.7 q=35.0 size=       1KiB time=00:00:01.76 bitrate=   3.2kbits/s speed=0.0608x elapsed=0:00:29.07    \nframe=  109 fps=3.7 q=32.0 size=       1KiB time=00:00:01.80 bitrate=   3.2kbits/s speed=0.0608x elapsed=0:00:29.59    \nframe=  114 fps=3.8 q=34.0 size=       1KiB time=00:00:01.88 bitrate=   3.0kbits/s speed=0.0626x elapsed=0:00:30.10    \nframe=  116 fps=3.8 q=34.0 size=       1KiB time=00:00:01.91 bitrate=   3.0kbits/s speed=0.0626x elapsed=0:00:30.62    \nframe=  118 fps=3.8 q=34.0 size=       1KiB time=00:00:01.95 bitrate=   2.9kbits/s speed=0.0626x elapsed=0:00:31.14    \nframe=  120 fps=3.8 q=33.0 size=       1KiB time=00:00:01.98 bitrate=   2.9kbits/s speed=0.0626x elapsed=0:00:31.67    \nframe=  123 fps=3.8 q=35.0 size=       1KiB time=00:00:02.03 bitrate=   2.8kbits/s speed=0.0632x elapsed=0:00:32.19    \nframe=  124 fps=3.8 q=32.0 size=       1KiB time=00:00:02.05 bitrate=   2.8kbits/s speed=0.0627x elapsed=0:00:32.69    \nframe=  128 fps=3.9 q=32.0 size=       1KiB time=00:00:02.11 bitrate=   2.7kbits/s speed=0.0637x elapsed=0:00:33.22    \nframe=  131 fps=3.9 q=35.0 size=       1KiB time=00:00:02.16 bitrate=   2.6kbits/s speed=0.0642x elapsed=0:00:33.72    \nframe=  133 fps=3.9 q=33.0 size=       1KiB time=00:00:02.20 bitrate=   2.6kbits/s speed=0.0642x elapsed=0:00:34.25    \nframe=  135 fps=3.9 q=35.0 size=       1KiB time=00:00:02.23 bitrate=   2.6kbits/s speed=0.0642x elapsed=0:00:34.77    \nframe=  138 fps=3.9 q=34.0 size=       1KiB time=00:00:02.28 bitrate=   2.5kbits/s speed=0.0647x elapsed=0:00:35.27    \nframe=  140 fps=3.9 q=33.0 size=       1KiB time=00:00:02.31 bitrate=   2.5kbits/s speed=0.0647x elapsed=0:00:35.80    \nframe=  143 fps=3.9 q=34.0 size=       1KiB time=00:00:02.36 bitrate=   2.4kbits/s speed=0.0652x elapsed=0:00:36.30    \nframe=  147 fps=4.0 q=35.0 size=       1KiB time=00:00:02.43 bitrate=   2.3kbits/s speed=0.0661x elapsed=0:00:36.82    \nframe=  149 fps=4.0 q=33.0 size=       1KiB time=00:00:02.46 bitrate=   2.3kbits/s speed=0.066x elapsed=0:00:37.35    \nframe=  150 fps=4.0 q=31.0 size=       1KiB time=00:00:02.48 bitrate=   2.3kbits/s speed=0.0656x elapsed=0:00:37.85    \nframe=  152 fps=4.0 q=31.0 size=       1KiB time=00:00:02.51 bitrate=   2.3kbits/s speed=0.0656x elapsed=0:00:38.37    \nframe=  155 fps=4.0 q=35.0 size=       1KiB time=00:00:02.56 bitrate=   2.2kbits/s speed=0.066x elapsed=0:00:38.88    \nframe=  161 fps=4.1 q=17.0 size=       1KiB time=00:00:02.66 bitrate=   2.1kbits/s speed=0.0677x elapsed=0:00:39.41    \nframe=  164 fps=4.1 q=34.0 size=       1KiB time=00:00:02.71 bitrate=   2.1kbits/s speed=0.068x elapsed=0:00:39.92    \nframe=  166 fps=4.1 q=33.0 size=       1KiB time=00:00:02.75 bitrate=   2.1kbits/s speed=0.068x elapsed=0:00:40.43    \nframe=  171 fps=4.2 q=36.0 size=       1KiB time=00:00:02.83 bitrate=   2.0kbits/s speed=0.0692x elapsed=0:00:40.94    \nframe=  174 fps=4.2 q=33.0 size=       1KiB time=00:00:02.88 bitrate=   2.0kbits/s speed=0.0695x elapsed=0:00:41.47    \nframe=  180 fps=4.3 q=34.0 size=       1KiB time=00:00:02.98 bitrate=   1.9kbits/s speed=0.071x elapsed=0:00:41.99    \nframe=  183 fps=4.3 q=35.0 size=       1KiB time=00:00:03.03 bitrate=   1.9kbits/s speed=0.0714x elapsed=0:00:42.49    \nframe=  186 fps=4.3 q=32.0 size=       1KiB time=00:00:03.08 bitrate=   1.8kbits/s speed=0.0717x elapsed=0:00:43.01    \nframe=  189 fps=4.3 q=33.0 size=       1KiB time=00:00:03.13 bitrate=   1.8kbits/s speed=0.072x elapsed=0:00:43.52    \nframe=  194 fps=4.4 q=32.0 size=       1KiB time=00:00:03.21 bitrate=   1.8kbits/s speed=0.073x elapsed=0:00:44.04    \nframe=  196 fps=4.4 q=32.0 size=       1KiB time=00:00:03.25 bitrate=   1.8kbits/s speed=0.0729x elapsed=0:00:44.55    \nframe=  199 fps=4.4 q=33.0 size=       1KiB time=00:00:03.30 bitrate=   1.7kbits/s speed=0.0732x elapsed=0:00:45.07    \nframe=  200 fps=4.4 q=32.0 size=       1KiB time=00:00:03.31 bitrate=   1.7kbits/s speed=0.0727x elapsed=0:00:45.60    \nframe=  205 fps=4.4 q=33.0 size=       1KiB time=00:00:03.40 bitrate=   1.7kbits/s speed=0.0737x elapsed=0:00:46.10    \nframe=  209 fps=4.5 q=24.0 size=       1KiB time=00:00:03.46 bitrate=   1.6kbits/s speed=0.0743x elapsed=0:00:46.62    \nframe=  213 fps=4.5 q=33.0 size=       1KiB time=00:00:03.53 bitrate=   1.6kbits/s speed=0.075x elapsed=0:00:47.13    \nframe=  217 fps=4.6 q=26.0 size=       1KiB time=00:00:03.60 bitrate=   1.6kbits/s speed=0.0755x elapsed=0:00:47.65    \nframe=  219 fps=4.5 q=35.0 size=       1KiB time=00:00:03.63 bitrate=   1.6kbits/s speed=0.0754x elapsed=0:00:48.17    \nframe=  223 fps=4.6 q=35.0 size=       1KiB time=00:00:03.70 bitrate=   1.5kbits/s speed=0.076x elapsed=0:00:48.68    \nframe=  227 fps=4.6 q=36.0 size=       1KiB time=00:00:03.76 bitrate=   1.5kbits/s speed=0.0765x elapsed=0:00:49.20    \nframe=  233 fps=4.7 q=27.0 size=       1KiB time=00:00:03.86 bitrate=   1.5kbits/s speed=0.0778x elapsed=0:00:49.72    \nframe=  233 fps=4.6 q=27.0 size=       1KiB time=00:00:03.86 bitrate=   1.5kbits/s speed=0.077x elapsed=0:00:50.24    \nframe=  237 fps=4.7 q=33.0 size=       1KiB time=00:00:03.93 bitrate=   1.4kbits/s speed=0.0774x elapsed=0:00:50.80    \nframe=  243 fps=4.7 q=38.0 size=       1KiB time=00:00:04.03 bitrate=   1.4kbits/s speed=0.0786x elapsed=0:00:51.32    \nframe=  249 fps=4.8 q=32.0 size=       1KiB time=00:00:04.13 bitrate=   1.4kbits/s speed=0.0797x elapsed=0:00:51.84    \nframe=  251 fps=4.8 q=36.0 size=       1KiB time=00:00:04.16 bitrate=   1.4kbits/s speed=0.0795x elapsed=0:00:52.39    \nframe=  253 fps=4.8 q=33.0 size=       1KiB time=00:00:04.20 bitrate=   1.4kbits/s speed=0.0794x elapsed=0:00:52.90    \nframe=  259 fps=4.8 q=37.0 size=       1KiB time=00:00:04.30 bitrate=   1.3kbits/s speed=0.0805x elapsed=0:00:53.42    \nframe=  263 fps=4.9 q=34.0 size=       1KiB time=00:00:04.36 bitrate=   1.3kbits/s speed=0.0809x elapsed=0:00:53.95    \nframe=  265 fps=4.9 q=33.0 size=       1KiB time=00:00:04.40 bitrate=   1.3kbits/s speed=0.0808x elapsed=0:00:54.47    \nframe=  269 fps=4.9 q=35.0 size=       1KiB time=00:00:04.46 bitrate=   1.3kbits/s speed=0.0812x elapsed=0:00:54.99    \nframe=  275 fps=5.0 q=39.0 size=       1KiB time=00:00:04.56 bitrate=   1.2kbits/s speed=0.0823x elapsed=0:00:55.51    \nframe=  281 fps=5.0 q=35.0 size=       1KiB time=00:00:04.66 bitrate=   1.2kbits/s speed=0.0833x elapsed=0:00:56.03    \nframe=  285 fps=5.0 q=39.0 size=       1KiB time=00:00:04.73 bitrate=   1.2kbits/s speed=0.0836x elapsed=0:00:56.59    \nframe=  295 fps=5.2 q=39.0 size=       1KiB time=00:00:04.90 bitrate=   1.2kbits/s speed=0.0858x elapsed=0:00:57.11    \n[out#0/matroska @ 0000012629b7a0c0] video:1778KiB audio:0KiB subtitle:0KiB other streams:0KiB global headers:0KiB muxing overhead: 0.117313%\nframe=  300 fps=5.2 q=39.0 Lsize=    1780KiB time=00:00:04.98 bitrate=2926.4kbits/s speed=0.0872x elapsed=0:00:57.15    \n",
  "seconds": 57.84690594673157,
  "probe_out": {}
}